<svg xmlns="http://www.w3.org/2000/svg" width="1200" height="630" viewBox="0 0 1200 630" role="img" aria-label="Diseno Web en Alcoy">
  <defs>
    <linearGradient id="bg" x1="0" y1="0" x2="1" y2="1">
      <stop offset="0%" stop-color="#0b1220" />
      <stop offset="100%" stop-color="#0f4cc9" />
    </linearGradient>
    <linearGradient id="card" x1="0" y1="0" x2="1" y2="1">
      <stop offset="0%" stop-color="#ffffff" stop-opacity="0.17" />
      <stop offset="100%" stop-color="#ffffff" stop-opacity="0.05" />
    </linearGradient>
  </defs>

  <rect width="1200" height="630" fill="url(#bg)" />

  <circle cx="1020" cy="92" r="160" fill="#4f8dff" fill-opacity="0.16" />
  <circle cx="1110" cy="236" r="110" fill="#6aa6ff" fill-opacity="0.16" />

  <g transform="translate(70 86)">
    <text x="0" y="70" fill="#ffffff" font-family="Inter,Segoe UI,Arial,sans-serif" font-size="72" font-weight="800">
      Diseno Web en Alcoy
    </text>
    <text x="0" y="132" fill="#dbeafe" font-family="Inter,Segoe UI,Arial,sans-serif" font-size="36" font-weight="600">
      SvelteKit · WordPress · SEO
    </text>
    <text x="0" y="186" fill="#bfdbfe" font-family="Inter,Segoe UI,Arial,sans-serif" font-size="28" font-weight="500">
      Moises Valero
    </text>
  </g>

  <g transform="translate(730 150)">
    <rect width="390" height="290" rx="24" fill="url(#card)" stroke="#93c5fd" stroke-opacity="0.35" />
    <rect x="26" y="28" width="338" height="26" rx="8" fill="#dbeafe" fill-opacity="0.5" />
    <rect x="26" y="74" width="236" height="16" rx="8" fill="#bfdbfe" fill-opacity="0.55" />
    <rect x="26" y="102" width="300" height="16" rx="8" fill="#bfdbfe" fill-opacity="0.4" />
    <rect x="26" y="130" width="284" height="16" rx="8" fill="#bfdbfe" fill-opacity="0.35" />

    <rect x="26" y="176" width="158" height="86" rx="16" fill="#ffffff" fill-opacity="0.12" />
    <rect x="200" y="176" width="164" height="86" rx="16" fill="#ffffff" fill-opacity="0.09" />
    <rect x="46" y="198" width="92" height="12" rx="6" fill="#dbeafe" fill-opacity="0.6" />
    <rect x="46" y="220" width="122" height="12" rx="6" fill="#dbeafe" fill-opacity="0.36" />
    <rect x="220" y="198" width="92" height="12" rx="6" fill="#dbeafe" fill-opacity="0.52" />
    <rect x="220" y="220" width="122" height="12" rx="6" fill="#dbeafe" fill-opacity="0.3" />
  </g>
</svg>
