<?xml version="1.0" encoding="UTF-8"?>
<svg xmlns="http://www.w3.org/2000/svg" viewBox="241.88 348.85 542.2 376.78">
  <path fill="#292829" d="M241.923 349.546c17.855-.08 40.638-.865 58.144-.038l83.455 139.276a7488 7488 0 0 0 80.436-135.335c14.793 25.929 28.822 52.915 43.348 79.151 5.921 10.694 16.383 29.46 20.708 40.183 1.053 2.612.511 30.203.531 35.185l.058 110.42-38.217.013c-7.196-.018-15.277-.379-22.329.052.418-13.672.131-28.236.073-41.939q.126-23.882.003-47.764l-.132-61.85a5128 5128 0 0 0-56.684 89.981c-8.128 13.05-20.927 31.736-27.712 44.87-4.271-6.107-8.743-14.087-12.685-20.593a4027 4027 0 0 0-21.434-35.033l-29.459-47.606c-6.378-10.173-13.505-20.856-19.471-31.179-.574 17.566-.08 36.853-.142 54.547a4809 4809 0 0 0-.09 96.458c-7.767-.555-18.274-.116-26.187-.016a757 757 0 0 1-31.962-.18c-.595-20.248-.102-44.09-.109-64.603l.094-134.947-.005-43.021c-.001-8.303.206-17.824-.232-26.032m475.245-.418c21.189-.571 45.561-.099 66.909.053l-54.598 105.598c-6.873 12.543-13.572 26.216-20.179 39a4326 4326 0 0 1-29.506 56.348l-21.904 41.426c-4.724 8.874-9.83 17.959-14.118 27.016-3.683.21-7.435.111-11.129.068L528.929 429.721c-13.862-25.307-31.495-54.656-43.94-80.187l44.015-.284c8.627-.065 18.293-.338 26.828.074l45.526 85.548c11.256 20.778 26.833 47.599 36.198 68.544 2.696-4.399 7.487-15.091 10.016-20.178a1938 1938 0 0 1 18.793-36.843c16.644-32.457 34.511-64.514 50.803-97.267M322.134 669.761c15.297-1.999 29.337 8.729 31.427 24.013 2.091 15.285-8.554 29.389-23.826 31.57-15.401 2.199-29.65-8.555-31.758-23.969-2.108-15.413 8.731-29.598 24.157-31.614m7.14 43.959a16.903 16.903 0 1 0-7.935-32.854c-8.944 2.303-14.383 11.358-12.215 20.336 2.169 8.977 11.142 14.551 20.15 12.518m239.672-44.027c15.168-3 29.893 6.871 32.883 22.04 2.989 15.17-6.891 29.889-22.062 32.869-15.158 2.977-29.861-6.892-32.847-22.048s6.872-29.865 22.026-32.861m6.807 44.519c9.44-.903 16.338-9.324 15.363-18.757-.974-9.433-9.447-16.266-18.873-15.22-9.325 1.034-16.069 9.397-15.105 18.73s9.275 16.14 18.615 15.247m159.313-44.037c15.175-3.101 29.967 6.766 32.935 21.967 2.967 15.202-7.028 29.907-22.256 32.741-15.039 2.799-29.523-7.047-32.454-22.061s6.787-29.584 21.775-32.647m9.58 43.621c9.014-2.139 14.627-11.135 12.585-20.172-2.042-9.036-10.977-14.745-20.035-12.801a16.903 16.903 0 1 0 7.45 32.973m-367.64-43.271c10.63-.032 30.087-1.941 35.534 8.38 5.63 10.666.814 18.133-8.365 23.105 4.986 7.626 9.7 13.768 14.135 21.982-3.761.093-7.556.116-11.321.165-3.354-1.865-8.997-17.714-16.607-20.154-.741.142-1.357.084-1.665.616-2.008 3.473-1.261 15.384-1.212 19.452q-5.244.04-10.48.327a2804 2804 0 0 1-.019-53.873m10.91 24.483c4.738.053 9.341.38 13.582-2.065 7.417-12.278-5.282-12.273-13.484-13.324q-.093 7.694-.098 15.389m-133.988-24.76c3.656.08 7.09.383 10.726.56 13.743.671 20.038 17.636 11.511 27.838-5.829 6.973-13.995 4.939-22.039 5.732-.869 1.126-.543 2.378-.587 4.168l-.179 15.349c-3.541-.083-7.332-.257-10.84-.002-.577-5.745-.236-13.362-.237-19.306l-.066-34.127zm-.76 25.308c5.993.12 7.408.585 12.693-2.096 10.657-10.717-3.774-13.765-12.4-13.786-.536 4.098-.338 11.578-.293 15.882m241.764-25.026c9.522.585 21.341.359 31.013.409-.179 3.226-.109 5.898-.025 9.121q-9.752.157-19.504.028c-.084 4.239.04 8.71.088 12.966 5.547-.174 11.751-.063 17.344-.067-.275 2.572.169 7.068-.936 8.835l-1.287.179q-7.548.003-15.096.084l.083 22.044c-3.932-.027-7.665-.112-11.592.247.542-8.281-.002-20.367.158-28.976.109-5.908.345-19.707-.246-24.87m-60.852-.094 39.846.078-.038 9.788a143 143 0 0 0-14.408.103c.023 9.604.199 19.673-.277 29.226-.026 4.81-.143 9.759.194 14.546l-10.87-.044c-.576-4.391-.41-11.232-.406-15.824q.145-13.964-.132-27.927c-3.785-.421-9.799-.282-13.764-.301zm191.408.124c3.417.303 7.951.249 11.469.301-.422 5.064-.18 12.331-.158 17.555l-.024 26.583c6.551-.319 13.684-.296 20.266-.387l-.033 9.74c-6.607-.468-24.783-.358-31.472.036.28-18.209-.102-35.662-.048-53.828m63.026-.225.629.656c.408 13.025-.805 41.935.336 53.224l-10.429-.195c-1.561-2.151-.663-47.095-.583-53.666z"></path>
</svg>
